<?xml version="1.0" encoding="UTF-8"?>
<svg id="Capa_1" data-name="Capa 1" xmlns="http://www.w3.org/2000/svg" viewBox="0 0 2085.91 2061.05">
  <defs>
    <style>
      .cls-1 {
        fill: #fff;
      }

      .cls-2 {
        fill: none;
      }
    </style>
  </defs>
  <rect x="90.52" width="1995.39" height="1830.86" rx="222.12" ry="222.12"/>
  <g>
    <rect class="cls-1" x="110.91" y="171.7" width="1945.39" height="1780.85" rx="197.12" ry="197.12"/>
    <path d="M1859.19,196.7c45.97,0,89.2,17.9,121.7,50.41,32.51,32.51,50.41,75.73,50.41,121.7v1386.62c0,45.97-17.9,89.2-50.41,121.7-32.51,32.51-75.73,50.41-121.7,50.41H308.03c-45.97,0-89.2-17.9-121.7-50.41-32.51-32.51-50.41-75.73-50.41-121.7V368.82c0-45.97,17.9-89.2,50.41-121.7,32.51-32.51,75.73-50.41,121.7-50.41h1551.16M1859.19,146.7H308.03c-122.67,0-222.12,99.44-222.12,222.12v1386.62c0,122.67,99.44,222.12,222.12,222.12h1551.16c122.67,0,222.12-99.44,222.12-222.12V368.82c0-122.67-99.44-222.12-222.12-222.12h0Z"/>
  </g>
  <g>
    <rect class="cls-2" y="597.87" width="1897.92" height="1143.51"/>
    <path d="M1642.97,666.55c22.47,3.47,44.72,6.06,66.75,7.78,22.03,1.73,44.27,2.59,66.73,2.59,25.06,0,49.69-1.08,73.88-3.23s48.39-4.55,72.58-7.14l-2.59,10.38c-8.64.88-18.36,2.59-29.16,5.19-10.81,2.59-21.83,6.47-33.05,11.66-11.23,5.19-22.03,12.11-32.41,20.75s-19.88,19.44-28.5,32.39c-41.48,63.94-84.47,134.36-128.97,211.25-44.5,76.91-88.56,155.31-132.19,235.22-43.62,79.92-86.19,158.55-127.66,235.88s-80.36,148.39-116.64,213.19h-41.47c-1.73-8.62-5.62-27.64-11.67-57.02s-13.61-65.23-22.67-107.58c-9.08-42.33-19.23-89.2-30.45-140.61-11.23-51.41-22.69-103.45-34.34-156.17-11.67-52.7-23.34-104.55-35-155.52s-22.25-96.77-31.75-137.38l-1.3,2.58c-36.28,60.5-72.78,123.58-109.5,189.23s-72.8,131.33-108.22,196.98c-35.44,65.67-70,129.61-103.69,191.81-33.7,62.2-65.23,120.09-94.61,173.66h-40.17c-1.73-8.62-5.62-27.42-11.67-56.38-6.05-28.94-13.61-64.36-22.67-106.27-9.08-41.91-19.23-88.34-30.45-139.33-11.23-50.97-22.91-102.81-35-155.52s-23.77-104.33-34.98-154.88c-11.23-50.53-21.61-96.33-31.11-137.38-9.5-41.03-17.5-75.38-23.97-103.03-6.48-27.64-11.02-44.48-13.61-50.55-13.83-36.28-36.72-57.02-68.69-62.2l1.3-10.38c19,4.33,39.73,7.14,62.2,8.44s44.92,1.94,67.39,1.94,47.09-.64,73.88-1.94,51.83-4.11,75.17-8.44l-1.3,10.38c-8.66.88-17.94,3.03-27.88,6.48s-19,7.98-27.2,13.59c-8.22,5.62-15.12,12.11-20.75,19.45s-8,14.91-7.12,22.67c.86,6.06,4.75,28.31,11.66,66.75,6.91,38.45,15.55,85.33,25.92,140.61,10.38,55.3,21.83,114.48,34.36,177.55,12.53,63.08,23.97,122.27,34.34,177.56,10.36,55.3,19.22,102.17,26.56,140.61,7.34,38.45,11.44,60.7,12.31,66.75,6.91-11.23,18.8-31.33,35.64-60.27s36.5-63.08,58.97-102.39,46.66-82.08,72.58-128.3c25.91-46.22,51.83-92.23,77.75-138.03,25.92-45.78,50.11-90.06,72.58-132.83s41.91-79.7,58.33-110.81c-12.09-52.7-20.31-85.11-24.62-97.2-6.92-19-16.22-33.47-27.88-43.41s-25.27-16.2-40.81-18.8l2.59-10.38c19,4.33,39.73,7.14,62.2,8.44s44.92,1.94,67.39,1.94,46.88-.64,73.22-1.94,51.62-4.11,75.83-8.44l-1.3,10.38c-8.66.88-17.94,3.03-27.88,6.48s-19.22,7.98-27.86,13.59c-8.64,5.62-15.55,12.11-20.73,19.45s-7.78,14.91-7.78,22.67c.86,6.06,4.97,28.31,12.31,66.75,7.34,38.45,16.19,85.33,26.56,140.61,10.38,55.3,21.61,114.48,33.7,177.55,12.09,63.08,23.55,122.27,34.34,177.56s19.88,102.17,27.22,140.61c7.34,38.45,11.44,60.7,12.31,66.75,8.64-13.81,24.41-40.59,47.31-80.34,22.89-39.75,49.23-85.75,79.05-138.03,29.81-52.27,60.91-107.78,93.31-166.53s62.64-114.05,90.72-165.89,51.84-96.77,71.28-134.78,30.88-62.64,34.34-73.88c2.59-9.5,1.08-18.36-4.53-26.58-5.62-8.2-13.61-15.33-23.98-21.38s-21.81-11.23-34.34-15.55-23.55-7.34-33.05-9.08l2.59-10.38Z"/>
  </g>
</svg>